<svg xmlns="http://www.w3.org/2000/svg" version="1.0" width="500.000000" height="500.000000" preserveAspectRatio="xMidYMid meet" style=""><rect id="backgroundrect" width="100%" height="100%" x="0" y="0" fill="none" stroke="none"/>


<g class="currentLayer" style=""><title>Layer 1</title><g transform="translate(0,500) scale(0.10000000149011612,-0.10000000149011612) " fill="#c33817" stroke="none" id="svg_1" class="selected" fill-opacity="1">
<path d="M1172,4504.2910051345825 c-67,-26 -169,-120 -217,-200 c-82,-134 -110,-270 -102,-495 c6,-170 28,-319 90,-599 c68,-304 106,-490 121,-595 c8,-58 17,-121 21,-140 c3,-19 9,-188 15,-375 c10,-376 28,-603 79,-995 c34,-262 51,-352 69,-372 c21,-25 57,-22 79,6 c17,20 23,67 42,322 c63,825 104,1195 145,1314 c59,167 116,215 211,176 c81,-34 111,-160 195,-822 c36,-283 88,-453 195,-631 c138,-233 311,-403 511,-502 c176,-87 254,-101 594,-108 c559,-11 1130,51 1310,142 c72,36 92,72 88,157 c-3,55 -11,81 -46,150 c-74,146 -244,334 -452,501 c-138,110 -155,120 -179,107 c-44,-23 -27,-52 87,-141 c59,-46 158,-133 220,-194 c176,-170 274,-312 288,-419 c6,-39 3,-48 -18,-69 c-53,-53 -274,-97 -668,-133 c-267,-24 -810,-24 -935,0 c-278,54 -513,221 -690,491 c-154,235 -182,333 -255,915 c-54,427 -105,582 -206,629 c-51,25 -132,28 -172,7 c-71,-38 -150,-172 -177,-304 c-29,-139 -76,-574 -115,-1067 c-12,-152 -20,-218 -25,-213 c-6,6 -44,299 -55,423 c-6,61 -15,160 -20,220 c-6,61 -15,265 -20,455 c-9,351 -24,488 -75,710 c-47,206 -127,594 -146,706 c-29,174 -31,427 -5,529 c37,144 121,267 217,320 c44,24 66,30 119,30 c43,-1 76,-7 99,-19 c50,-27 195,-170 262,-260 c73,-96 99,-147 155,-298 c46,-125 145,-351 269,-618 c79,-168 429,-872 470,-945 c12,-22 46,-84 74,-138 c245,-463 304,-549 437,-630 c109,-66 172,-81 324,-81 c116,0 143,3 191,22 c67,27 125,79 134,122 c17,80 -30,139 -174,215 c-174,92 -310,213 -449,399 c-164,221 -256,405 -357,711 c-187,571 -380,944 -597,1151 c-82,78 -118,92 -138,55 c-14,-28 -5,-44 45,-80 c100,-72 246,-284 371,-536 c94,-192 152,-339 248,-633 c36,-111 88,-249 115,-307 c107,-226 249,-433 411,-596 c118,-119 211,-189 335,-252 c84,-42 108,-65 103,-103 c-7,-61 -168,-105 -310,-86 c-135,18 -262,86 -335,179 c-169,212 -984,1848 -1098,2203 c-28,86 -92,208 -153,290 c-82,112 -228,252 -298,286 c-78,38 -175,43 -252,13 z" id="svg_2" fill="#c33817" fill-opacity="1"/>
</g></g></svg>