<?xml version="1.0" encoding="UTF-8" standalone="no" ?>
<!DOCTYPE svg PUBLIC "-//W3C//DTD SVG 1.1//EN" "http://www.w3.org/Graphics/SVG/1.1/DTD/svg11.dtd">
<svg xmlns="http://www.w3.org/2000/svg" xmlns:xlink="http://www.w3.org/1999/xlink" version="1.1" width="137" height="139" viewBox="0 0 137 139" xml:space="preserve">
<desc>Created with Fabric.js 4.6.0</desc>
<defs>
</defs>
<g transform="matrix(1 0 0 1 70.69 66.02)" id="JJ3fGHBLw8KAIQnzwN5hM"  >
<path style="stroke: none; stroke-width: 1; stroke-dasharray: none; stroke-linecap: butt; stroke-dashoffset: 0; stroke-linejoin: miter; stroke-miterlimit: 4; fill: rgb(242,118,69); fill-rule: evenodd; opacity: 1;" vector-effect="non-scaling-stroke"  transform=" translate(0, 0)" d="M -5.24464 38.77306 C -7.589640000000001 37.70106 -10.384640000000001 33.43406 -12.890640000000001 24.14306 C -15.45864 14.980059999999998 -18.46364 6.5870599999999975 -23.30364 -1.365940000000002 C -24.138640000000002 -2.211940000000002 -24.90764 -2.809940000000002 -25.74264 -2.615940000000002 L -28.83764 -2.089940000000002 C -30.05064 -1.8029400000000022 -30.75264 -1.2259400000000023 -30.74964 -0.24394000000000204 C -31.434639999999998 11.846059999999998 -31.83964 23.897059999999996 -31.07764 35.806059999999995 L -31.538639999999997 36.400059999999996 L -32.79264 36.46606 C -35.27664 36.48506 -35.12664 36.17006 -35.62664 35.93906 C -35.26964 29.044059999999998 -35.86764 21.994059999999998 -36.61564 14.91406 C -37.62564 4.41606 -40.33364 -5.59394 -44.98064 -15.04994 C -45.19364 -15.70694 -45.01964 -16.00094 -44.83764 -16.24894 C -47.52164 -23.083940000000002 -40.753640000000004 -35.09394 -32.31764 -40.33194 C -31.995639999999998 -40.67794 -31.82464 -40.86694 -31.677639999999997 -41.034940000000006 C -31.834639999999997 -42.446940000000005 -4.341639999999998 -3.284940000000006 -6.361639999999998 -4.727940000000004 C -3.8696399999999977 0.06205999999999623 -2.1966399999999977 4.850059999999996 -0.6276399999999978 9.641059999999996 C 1.8153600000000023 14.333059999999996 6.371360000000002 16.539059999999996 13.674360000000002 15.508059999999997 C 18.08836 15.242059999999997 22.504360000000002 18.803059999999995 26.788360000000004 20.648059999999997 C 34.66536000000001 23.933059999999998 42.080360000000006 27.123059999999995 44.51836 29.28306 C 45.83636 30.99506 45.63736 32.77706 44.51836 34.028059999999996 C 44.270360000000004 34.989059999999995 43.61436 35.541059999999995 42.67036 35.806059999999995 C 34.154360000000004 38.392059999999994 25.023360000000004 39.54906 15.91336 40.751059999999995 C 4.957360000000001 41.59106 -1.580639999999999 40.73105999999999 -5.23564 38.78106 z" stroke-linecap="round" />
</g>
<g transform="matrix(0.75 0 0 0.75 68.5 70.5)" id="_8GuY3goe5NZMI_mHoVYS"  >
<path style="stroke: rgb(242,118,69); stroke-width: 3; stroke-dasharray: none; stroke-linecap: butt; stroke-dashoffset: 0; stroke-linejoin: miter; stroke-miterlimit: 4; fill: none; fill-rule: nonzero; opacity: 1;" vector-effect="non-scaling-stroke"  transform=" translate(0, 0)" d="M 0 -85.50459 C 47.19853 -85.50459 85.50459 -47.19852999999999 85.50459 0 C 85.50459 47.19853 47.19852999999999 85.50459 0 85.50459 C -47.19853 85.50459 -85.50459 47.19852999999999 -85.50459 0 C -85.50459 -47.19853 -47.19852999999999 -85.50459 0 -85.50459 z" stroke-linecap="round" />
</g>
</svg>